# xmcd
#
# Track frame offsets:
#	150
#	17152
#	31622
#	45125
#	59542
#	74160
#	89565
#	106627
#	120559
#	134987
#	148640
#	163534
#
# Disc length: 2366 seconds
#
# Revision: 1
# Processed by: cddbd v1.5.2PL0 Copyright (c) Steve Scherf et al.
# Submitted via: EZCDAudioConverter 8.1.0.1
#
DISCID=a5093c0c
DTITLE=Kane Brown - Experiment
DYEAR=2018
DGENRE=Country
TTITLE0=Baby Come Back To Me
TTITLE1=Good As You
TTITLE2=Lose It
TTITLE3=It Ain't You It's Me
TTITLE4=Short Skirt Weather
TTITLE5=Homesick
TTITLE6=Weekend
TTITLE7=Work
TTITLE8=One Night Only
TTITLE9=My Where I Come From
TTITLE10=American Bad Dream
TTITLE11=Live Forever
EXTD=
EXTT0=
EXTT1=
EXTT2=
EXTT3=
EXTT4=
EXTT5=
EXTT6=
EXTT7=
EXTT8=
EXTT9=
EXTT10=
EXTT11=
PLAYORDER=
